<?xml version="1.0" encoding="iso-8859-1"?>
<!-- Generator: Adobe Illustrator 19.0.0, SVG Export Plug-In . SVG Version: 6.00 Build 0)  -->
<svg version="1.1" id="Layer_1" xmlns="http://www.w3.org/2000/svg" xmlns:xlink="http://www.w3.org/1999/xlink" x="0px" y="0px"
	 viewBox="0 0 270 270" style="enable-background:new 0 0 270 270;" xml:space="preserve">
<g id="XMLID_520_">
	<path id="XMLID_521_" style="fill: #515459" d="M0.002,199.98c0,8.285,6.715,15,15,15H30v20c0,8.283,6.717,15,15,15h50c8.285,0,15-6.717,15-15v-20h50v20
		c0,8.283,6.717,15,15,15h50c8.285,0,15-6.717,15-15v-20h15c3.978,0,7.795-1.58,10.607-4.393c2.813-2.814,4.393-6.629,4.393-10.607
		l-0.002-59.286c0.035-3.064-0.365-21.476-14.173-35.609c-7.072-7.239-16.117-11.88-26.973-13.897l-8.327-58.289
		c-1.056-7.39-7.385-12.879-14.85-12.879H64.324c-7.465,0-13.794,5.489-14.85,12.879l-8.327,58.289
		c-10.854,2.018-19.899,6.658-26.972,13.896C0.359,119.228-0.034,137.652,0.002,140.699V199.98z M220,152.501
		c0,8.284-6.717,14.999-15,14.999c-8.285,0-15-6.715-15-14.999c0-8.285,6.715-15,15-15C213.283,137.501,220,144.216,220,152.501z
		 M77.333,50.019h115.334l5.714,40H71.619L77.333,50.019z M65,137.501c8.283,0,15,6.715,15,15c0,8.284-6.717,14.999-15,14.999
		c-8.285,0-15-6.715-15-14.999C50,144.216,56.714,137.501,65,137.501z"/>
</g>
<g>
</g>
<g>
</g>
<g>
</g>
<g>
</g>
<g>
</g>
<g>
</g>
<g>
</g>
<g>
</g>
<g>
</g>
<g>
</g>
<g>
</g>
<g>
</g>
<g>
</g>
<g>
</g>
<g>
</g>
</svg>
